<svg width="1880" height="1199" xmlns="http://www.w3.org/2000/svg" xmlns:xlink="http://www.w3.org/1999/xlink" xml:space="preserve" overflow="hidden"><g transform="translate(-1280 -351)"><path d="M2593.04 431.178C2591.67 432.205 2590.63 433.293 2589.94 434.441 2589.25 435.589 2588.91 436.893 2588.91 438.352 2588.91 440.783 2589.88 442.573 2591.81 443.722 2593.74 444.87 2596.69 445.444 2600.66 445.444 2603.09 445.444 2605.18 445.12 2606.92 444.471 2608.67 443.823 2610 442.891 2610.92 441.675 2611.83 440.459 2612.29 439.041 2612.29 437.42 2612.29 436.663 2612.2 435.927 2612.01 435.211 2611.82 434.495 2611.46 433.853 2610.94 433.286 2610.41 432.718 2609.66 432.266 2608.69 431.928 2607.71 431.59 2606.44 431.422 2604.88 431.422L2598.84 431.422C2596.65 431.422 2594.72 431.341 2593.04 431.178ZM2560.27 394.299C2557.49 394.299 2555.26 395.413 2553.6 397.642 2551.94 399.871 2550.96 403.052 2550.67 407.186L2568.38 407.186C2568.21 404.268 2567.85 401.884 2567.28 400.033 2566.71 398.182 2565.86 396.764 2564.73 395.778 2563.59 394.792 2562.11 394.299 2560.27 394.299ZM2599.93 394.177C2597.37 394.177 2595.41 395.028 2594.06 396.73 2592.71 398.432 2592.03 400.891 2592.03 404.106 2592.03 407.483 2592.72 410.091 2594.1 411.928 2595.47 413.765 2597.46 414.684 2600.05 414.684 2601.43 414.684 2602.61 414.42 2603.58 413.893 2604.55 413.367 2605.34 412.644 2605.95 411.725 2606.56 410.807 2607 409.746 2607.29 408.544 2607.57 407.342 2607.71 406.078 2607.71 404.755 2607.71 402.377 2607.38 400.391 2606.7 398.797 2606.03 397.203 2605.11 396.034 2603.94 395.291 2602.78 394.548 2601.45 394.177 2599.93 394.177ZM2600.01 391.097C2601.96 391.097 2603.89 391.327 2605.81 391.786L2620.16 391.786 2620.16 395.879 2612.66 395.595 2612.29 396.041C2613.13 396.879 2613.79 398.02 2614.28 399.466 2614.77 400.911 2615.01 402.472 2615.01 404.147 2615.01 408.551 2613.65 411.948 2610.94 414.339 2608.22 416.73 2604.36 417.926 2599.37 417.926 2597.12 417.926 2595.19 417.642 2593.57 417.075 2591.52 418.642 2590.49 420.182 2590.49 421.695 2590.49 422.695 2590.69 423.451 2591.08 423.965 2591.47 424.478 2592.12 424.843 2593.02 425.059 2593.93 425.275 2595.3 425.383 2597.14 425.383L2606.86 425.383C2609.73 425.383 2612.06 425.829 2613.87 426.72 2615.68 427.612 2616.97 428.808 2617.74 430.307 2618.51 431.807 2618.9 433.556 2618.9 435.555 2618.9 438.095 2618.17 440.358 2616.71 442.344 2615.25 444.33 2613.14 445.876 2610.39 446.984 2607.63 448.092 2604.42 448.646 2600.74 448.646 2598.01 448.646 2595.52 448.484 2593.27 448.159 2591.01 447.835 2589.08 447.288 2587.47 446.518 2585.86 445.748 2584.62 444.735 2583.74 443.478 2582.86 442.222 2582.42 440.648 2582.42 438.757 2582.42 437.055 2582.99 435.508 2584.13 434.117 2585.26 432.725 2586.87 431.503 2588.95 430.449 2587.68 429.936 2586.68 429.179 2585.95 428.179 2585.22 427.18 2584.86 426.004 2584.86 424.654 2584.86 423.113 2585.29 421.702 2586.15 420.418 2587.02 419.135 2588.54 417.669 2590.73 416.021 2588.79 414.886 2587.31 413.346 2586.3 411.401 2585.28 409.456 2584.78 407.24 2584.78 404.755 2584.78 402.431 2585.16 400.411 2585.93 398.696 2586.7 396.98 2587.77 395.562 2589.13 394.44 2590.5 393.319 2592.11 392.482 2593.98 391.928 2595.84 391.374 2597.85 391.097 2600.01 391.097ZM2560.68 391.097C2563.4 391.097 2565.73 391.529 2567.65 392.394 2569.56 393.258 2571.1 394.44 2572.25 395.94 2573.39 397.439 2574.29 399.331 2574.92 401.614 2575.56 403.897 2575.91 406.876 2575.99 410.55L2550.46 410.55 2550.46 411.279C2550.46 414.468 2550.82 417.149 2551.54 419.324 2552.25 421.499 2553.43 423.201 2555.06 424.431 2556.7 425.66 2558.82 426.275 2561.45 426.275 2563.66 426.275 2565.65 425.863 2567.42 425.039 2569.19 424.214 2570.96 422.87 2572.71 421.006L2575.18 423.64C2573.45 425.451 2571.87 426.869 2570.42 427.896 2568.98 428.922 2567.39 429.726 2565.66 430.307 2563.93 430.888 2562.03 431.178 2559.95 431.178 2554.38 431.178 2550.18 429.51 2547.34 426.173 2544.5 422.837 2543.09 417.912 2543.09 411.401 2543.09 407.375 2543.81 403.822 2545.25 400.742 2546.7 397.662 2548.76 395.285 2551.44 393.61 2554.11 391.934 2557.19 391.097 2560.68 391.097ZM2507.32 378.736C2505.49 378.736 2503.74 378.79 2502.1 378.898L2502.1 426.761C2503.18 426.869 2504.77 426.923 2506.88 426.923 2509.15 426.923 2511.17 426.734 2512.96 426.356 2514.74 425.977 2516.36 425.383 2517.82 424.572 2519.28 423.762 2520.59 422.634 2521.75 421.188 2522.91 419.743 2523.86 418.081 2524.59 416.204 2525.32 414.326 2525.85 412.239 2526.19 409.942 2526.53 407.646 2526.7 405.133 2526.7 402.404 2526.7 396.919 2525.91 392.414 2524.32 388.888 2522.74 385.362 2520.52 382.789 2517.64 381.168 2514.76 379.547 2511.32 378.736 2507.32 378.736ZM2489.73 375.21 2507.49 375.21C2512.59 375.21 2516.77 375.771 2520.03 376.892 2523.28 378.013 2526.03 379.668 2528.28 381.857 2530.52 384.045 2532.19 386.767 2533.3 390.023 2534.41 393.279 2534.96 397.162 2534.96 401.674 2534.96 406.241 2534.44 410.26 2533.4 413.731 2532.36 417.203 2530.84 420.114 2528.84 422.465 2527.11 424.518 2524.99 426.207 2522.48 427.531 2520.4 428.612 2518 429.382 2515.27 429.841 2512.54 430.3 2508.92 430.53 2504.41 430.53L2489.73 430.53 2489.73 428.544C2490.98 428.22 2491.87 427.909 2492.41 427.612 2492.95 427.315 2493.37 426.937 2493.67 426.477 2493.96 426.018 2494.18 425.356 2494.31 424.491 2494.45 423.627 2494.52 422.262 2494.52 420.398L2494.52 385.342C2494.52 383.451 2494.45 382.08 2494.31 381.228 2494.18 380.377 2493.96 379.722 2493.65 379.263 2493.33 378.804 2492.92 378.432 2492.41 378.148 2491.9 377.865 2491 377.547 2489.73 377.196Z" fill-rule="evenodd"/><text fill="#000000" fill-opacity="0" font-family="Arial,Arial_MSFontService,sans-serif" font-size="73.4355" x="2489.73" y="439.466">Deg</text><path d="M2649.99 378.777C2648.31 378.777 2646.56 378.817 2644.72 378.898L2639.21 403.458 2643.42 403.458C2646.69 403.458 2649.33 403.12 2651.35 402.445 2653.36 401.769 2655.01 400.722 2656.29 399.304 2657.57 397.885 2658.57 396.203 2659.27 394.258 2659.97 392.313 2660.32 390.178 2660.32 387.855 2660.32 384.721 2659.53 382.424 2657.93 380.965 2656.34 379.506 2653.69 378.777 2649.99 378.777ZM2633.01 375.21 2650.88 375.21C2654.1 375.21 2656.74 375.46 2658.8 375.96 2660.87 376.46 2662.57 377.23 2663.91 378.27 2665.25 379.31 2666.25 380.627 2666.91 382.221 2667.57 383.815 2667.9 385.666 2667.9 387.774 2667.9 391.826 2666.94 395.339 2665.02 398.311 2663.11 401.283 2660.51 403.471 2657.22 404.876 2653.94 406.281 2650 406.984 2645.41 406.984 2642.65 406.984 2640.36 406.93 2638.52 406.821L2635.93 418.737C2635.68 419.844 2635.51 420.695 2635.42 421.29 2635.32 421.884 2635.24 422.526 2635.18 423.215 2635.11 423.904 2635.07 424.518 2635.07 425.059 2635.07 425.896 2635.21 426.552 2635.48 427.024 2635.75 427.497 2636.16 427.842 2636.7 428.058 2637.24 428.274 2638.17 428.436 2639.49 428.544L2639.05 430.53 2622.39 430.53 2622.84 428.544C2623.86 428.382 2624.63 428.119 2625.15 427.754 2625.66 427.389 2626.09 426.883 2626.44 426.234 2626.79 425.586 2627.12 424.795 2627.42 423.863 2627.71 422.931 2628.16 421.128 2628.75 418.453L2635.64 387.247C2636.24 384.545 2636.53 382.41 2636.53 380.843 2636.53 379.52 2636.22 378.601 2635.6 378.088 2634.98 377.574 2633.97 377.277 2632.56 377.196Z" fill-rule="evenodd"/><text fill="#000000" fill-opacity="0" font-family="Arial,Arial_MSFontService,sans-serif" font-size="55.3198" x="2622.39" y="423.615">ğ‘ƒ</text><path d="M2619.37 726.836C2617.99 727.863 2616.96 728.95 2616.27 730.098 2615.58 731.247 2615.24 732.55 2615.24 734.009 2615.24 736.441 2616.2 738.231 2618.13 739.379 2620.07 740.527 2623.02 741.102 2626.99 741.102 2629.42 741.102 2631.51 740.777 2633.25 740.129 2634.99 739.48 2636.32 738.548 2637.24 737.332 2638.16 736.117 2638.62 734.698 2638.62 733.077 2638.62 732.321 2638.53 731.584 2638.34 730.868 2638.15 730.152 2637.79 729.511 2637.26 728.943 2636.74 728.376 2635.99 727.923 2635.01 727.586 2634.04 727.248 2632.77 727.079 2631.2 727.079L2625.17 727.079C2622.98 727.079 2621.04 726.998 2619.37 726.836ZM2586.6 689.956C2583.81 689.956 2581.59 691.07 2579.93 693.299 2578.27 695.529 2577.29 698.71 2576.99 702.844L2594.7 702.844C2594.54 699.926 2594.18 697.541 2593.61 695.691 2593.04 693.84 2592.19 692.421 2591.05 691.435 2589.92 690.449 2588.43 689.956 2586.6 689.956ZM2626.26 689.834C2623.69 689.834 2621.73 690.685 2620.38 692.388 2619.03 694.09 2618.36 696.548 2618.36 699.764 2618.36 703.141 2619.05 705.748 2620.42 707.585 2621.8 709.423 2623.79 710.341 2626.38 710.341 2627.76 710.341 2628.93 710.078 2629.91 709.551 2630.88 709.024 2631.67 708.301 2632.28 707.383 2632.89 706.464 2633.33 705.404 2633.62 704.201 2633.9 702.999 2634.04 701.736 2634.04 700.412 2634.04 698.034 2633.7 696.049 2633.03 694.455 2632.35 692.86 2631.43 691.692 2630.27 690.949 2629.11 690.206 2627.77 689.834 2626.26 689.834ZM2626.34 686.754C2628.29 686.754 2630.22 686.984 2632.14 687.443L2646.48 687.443 2646.48 691.537 2638.99 691.253 2638.62 691.699C2639.46 692.536 2640.12 693.678 2640.61 695.123 2641.09 696.569 2641.34 698.129 2641.34 699.804 2641.34 704.208 2639.98 707.606 2637.26 709.997 2634.55 712.388 2630.69 713.583 2625.69 713.583 2623.45 713.583 2621.52 713.3 2619.9 712.732 2617.84 714.299 2616.82 715.839 2616.82 717.352 2616.82 718.352 2617.01 719.109 2617.4 719.622 2617.8 720.135 2618.44 720.5 2619.35 720.716 2620.25 720.932 2621.63 721.04 2623.46 721.04L2633.19 721.04C2636.05 721.04 2638.39 721.486 2640.2 722.378 2642.01 723.269 2643.3 724.465 2644.07 725.965 2644.84 727.464 2645.23 729.214 2645.23 731.213 2645.23 733.753 2644.5 736.015 2643.04 738.001 2641.58 739.987 2639.47 741.534 2636.72 742.642 2633.96 743.749 2630.74 744.303 2627.07 744.303 2624.34 744.303 2621.85 744.141 2619.59 743.817 2617.34 743.493 2615.41 742.945 2613.8 742.175 2612.19 741.405 2610.95 740.392 2610.07 739.136 2609.19 737.88 2608.75 736.306 2608.75 734.414 2608.75 732.712 2609.32 731.166 2610.45 729.774 2611.59 728.383 2613.2 727.16 2615.28 726.106 2614.01 725.593 2613.01 724.837 2612.28 723.837 2611.55 722.837 2611.18 721.662 2611.18 720.311 2611.18 718.771 2611.62 717.359 2612.48 716.076 2613.34 714.792 2614.87 713.327 2617.06 711.679 2615.11 710.544 2613.64 709.004 2612.62 707.059 2611.61 705.113 2611.1 702.898 2611.1 700.412 2611.1 698.089 2611.49 696.069 2612.26 694.353 2613.03 692.638 2614.09 691.219 2615.46 690.098 2616.82 688.977 2618.44 688.139 2620.3 687.585 2622.17 687.031 2624.18 686.754 2626.34 686.754ZM2587 686.754C2589.73 686.754 2592.05 687.187 2593.97 688.051 2595.89 688.916 2597.42 690.098 2598.57 691.597 2599.72 693.097 2600.61 694.988 2601.25 697.271 2601.88 699.554 2602.24 702.533 2602.32 706.207L2576.79 706.207 2576.79 706.937C2576.79 710.125 2577.15 712.807 2577.86 714.982 2578.58 717.157 2579.75 718.859 2581.39 720.088 2583.02 721.317 2585.15 721.932 2587.77 721.932 2589.99 721.932 2591.98 721.52 2593.75 720.696 2595.52 719.872 2597.28 718.528 2599.04 716.664L2601.51 719.298C2599.78 721.108 2598.19 722.526 2596.75 723.553 2595.3 724.58 2593.72 725.384 2591.99 725.965 2590.26 726.545 2588.35 726.836 2586.27 726.836 2580.71 726.836 2576.51 725.167 2573.67 721.831 2570.83 718.494 2569.41 713.57 2569.41 707.059 2569.41 703.033 2570.14 699.48 2571.58 696.4 2573.03 693.32 2575.09 690.942 2577.76 689.267 2580.44 687.592 2583.52 686.754 2587 686.754ZM2533.65 674.393C2531.81 674.393 2530.07 674.448 2528.42 674.556L2528.42 722.418C2529.5 722.526 2531.1 722.581 2533.2 722.581 2535.47 722.581 2537.5 722.391 2539.28 722.013 2541.07 721.635 2542.69 721.04 2544.15 720.23 2545.61 719.419 2546.92 718.291 2548.08 716.846 2549.24 715.4 2550.19 713.739 2550.92 711.861 2551.64 709.983 2552.18 707.896 2552.52 705.6 2552.85 703.303 2553.02 700.79 2553.02 698.061 2553.02 692.577 2552.23 688.071 2550.65 684.546 2549.07 681.02 2546.84 678.446 2543.96 676.825 2541.09 675.204 2537.65 674.393 2533.65 674.393ZM2516.06 670.868 2533.81 670.868C2538.92 670.868 2543.1 671.428 2546.36 672.549 2549.61 673.671 2552.36 675.326 2554.6 677.514 2556.85 679.703 2558.52 682.425 2559.63 685.68 2560.74 688.936 2561.29 692.82 2561.29 697.332 2561.29 701.898 2560.77 705.917 2559.73 709.389 2558.69 712.861 2557.17 715.772 2555.17 718.122 2553.44 720.176 2551.32 721.865 2548.81 723.188 2546.73 724.269 2544.32 725.039 2541.59 725.498 2538.87 725.958 2535.24 726.187 2530.73 726.187L2516.06 726.187 2516.06 724.202C2517.3 723.877 2518.2 723.567 2518.74 723.269 2519.28 722.972 2519.7 722.594 2519.99 722.135 2520.29 721.675 2520.51 721.013 2520.64 720.149 2520.78 719.284 2520.84 717.92 2520.84 716.056L2520.84 680.999C2520.84 679.108 2520.78 677.737 2520.64 676.886 2520.51 676.035 2520.28 675.38 2519.97 674.92 2519.66 674.461 2519.25 674.09 2518.74 673.806 2518.22 673.522 2517.33 673.205 2516.06 672.853Z" fill-rule="evenodd"/><text fill="#000000" fill-opacity="0" font-family="Arial,Arial_MSFontService,sans-serif" font-size="73.4355" x="2516.06" y="735.124">Deg</text><path d="M2054.51 953.025C2053.13 954.052 2052.09 955.139 2051.41 956.287 2050.72 957.436 2050.37 958.739 2050.37 960.198 2050.37 962.63 2051.34 964.42 2053.27 965.568 2055.2 966.716 2058.15 967.29 2062.13 967.29 2064.56 967.29 2066.64 966.966 2068.39 966.318 2070.13 965.669 2071.46 964.737 2072.38 963.521 2073.3 962.306 2073.76 960.887 2073.76 959.266 2073.76 958.51 2073.66 957.773 2073.47 957.057 2073.28 956.341 2072.93 955.7 2072.4 955.132 2071.87 954.565 2071.12 954.112 2070.15 953.775 2069.18 953.437 2067.91 953.268 2066.34 953.268L2060.3 953.268C2058.11 953.268 2056.18 953.187 2054.51 953.025ZM2021.73 916.145C2018.95 916.145 2016.73 917.259 2015.07 919.488 2013.41 921.717 2012.43 924.899 2012.13 929.033L2029.84 929.033C2029.68 926.115 2029.31 923.73 2028.74 921.88 2028.18 920.029 2027.33 918.61 2026.19 917.624 2025.06 916.638 2023.57 916.145 2021.73 916.145ZM2061.4 916.023C2058.83 916.023 2056.87 916.874 2055.52 918.577 2054.17 920.279 2053.49 922.737 2053.49 925.953 2053.49 929.33 2054.18 931.937 2055.56 933.774 2056.94 935.612 2058.92 936.53 2061.52 936.53 2062.9 936.53 2064.07 936.267 2065.04 935.74 2066.02 935.213 2066.81 934.49 2067.41 933.572 2068.02 932.653 2068.47 931.593 2068.75 930.39 2069.04 929.188 2069.18 927.925 2069.18 926.601 2069.18 924.223 2068.84 922.238 2068.16 920.643 2067.49 919.049 2066.57 917.881 2065.41 917.138 2064.25 916.395 2062.91 916.023 2061.4 916.023ZM2061.48 912.943C2063.42 912.943 2065.35 913.173 2067.27 913.632L2081.62 913.632 2081.62 917.726 2074.12 917.442 2073.76 917.888C2074.59 918.725 2075.26 919.867 2075.74 921.312 2076.23 922.758 2076.47 924.318 2076.47 925.993 2076.47 930.397 2075.11 933.795 2072.4 936.186 2069.68 938.577 2065.83 939.772 2060.83 939.772 2058.59 939.772 2056.65 939.489 2055.03 938.921 2052.98 940.488 2051.95 942.028 2051.95 943.541 2051.95 944.541 2052.15 945.298 2052.54 945.811 2052.93 946.324 2053.58 946.689 2054.49 946.905 2055.39 947.121 2056.76 947.229 2058.6 947.229L2068.33 947.229C2071.19 947.229 2073.53 947.675 2075.34 948.567 2077.15 949.458 2078.44 950.654 2079.21 952.154 2079.98 953.653 2080.36 955.402 2080.36 957.402 2080.36 959.942 2079.63 962.204 2078.17 964.19 2076.72 966.176 2074.61 967.723 2071.85 968.831 2069.1 969.938 2065.88 970.492 2062.21 970.492 2059.48 970.492 2056.99 970.33 2054.73 970.006 2052.47 969.682 2050.54 969.134 2048.93 968.364 2047.33 967.594 2046.08 966.581 2045.21 965.325 2044.33 964.069 2043.89 962.495 2043.89 960.603 2043.89 958.901 2044.46 957.354 2045.59 955.963 2046.73 954.572 2048.33 953.349 2050.41 952.295 2049.14 951.782 2048.14 951.026 2047.41 950.026 2046.68 949.026 2046.32 947.851 2046.32 946.5 2046.32 944.96 2046.75 943.548 2047.62 942.265 2048.48 940.981 2050.01 939.516 2052.2 937.868 2050.25 936.733 2048.77 935.193 2047.76 933.247 2046.75 931.302 2046.24 929.087 2046.24 926.601 2046.24 924.277 2046.62 922.258 2047.39 920.542 2048.16 918.827 2049.23 917.408 2050.6 916.287 2051.96 915.166 2053.57 914.328 2055.44 913.774 2057.3 913.22 2059.32 912.943 2061.48 912.943ZM2022.14 912.943C2024.87 912.943 2027.19 913.376 2029.11 914.24 2031.03 915.105 2032.56 916.287 2033.71 917.786 2034.86 919.286 2035.75 921.177 2036.38 923.46 2037.02 925.743 2037.38 928.722 2037.46 932.396L2011.93 932.396 2011.93 933.126C2011.93 936.314 2012.28 938.996 2013 941.171 2013.72 943.346 2014.89 945.048 2016.53 946.277 2018.16 947.506 2020.29 948.121 2022.91 948.121 2025.12 948.121 2027.12 947.709 2028.89 946.885 2030.66 946.061 2032.42 944.717 2034.18 942.852L2036.65 945.487C2034.92 947.297 2033.33 948.715 2031.89 949.742 2030.44 950.769 2028.85 951.573 2027.12 952.154 2025.39 952.734 2023.49 953.025 2021.41 953.025 2015.84 953.025 2011.64 951.356 2008.81 948.02 2005.97 944.683 2004.55 939.759 2004.55 933.247 2004.55 929.222 2005.27 925.669 2006.72 922.589 2008.16 919.509 2010.22 917.131 2012.9 915.456 2015.57 913.781 2018.65 912.943 2022.14 912.943ZM1968.79 900.582C1966.95 900.582 1965.21 900.636 1963.56 900.745L1963.56 948.607C1964.64 948.715 1966.23 948.769 1968.34 948.769 1970.61 948.769 1972.64 948.58 1974.42 948.202 1976.2 947.824 1977.82 947.229 1979.28 946.419 1980.74 945.608 1982.05 944.48 1983.21 943.035 1984.38 941.589 1985.32 939.928 1986.05 938.05 1986.78 936.172 1987.31 934.085 1987.65 931.789 1987.99 929.492 1988.16 926.979 1988.16 924.25 1988.16 918.766 1987.37 914.26 1985.79 910.735 1984.21 907.209 1981.98 904.635 1979.1 903.014 1976.22 901.393 1972.79 900.582 1968.79 900.582ZM1951.2 897.057 1968.95 897.057C1974.06 897.057 1978.24 897.617 1981.49 898.738 1984.75 899.86 1987.5 901.515 1989.74 903.703 1991.98 905.892 1993.66 908.614 1994.77 911.869 1995.87 915.125 1996.43 919.009 1996.43 923.521 1996.43 928.087 1995.91 932.106 1994.87 935.578 1993.83 939.05 1992.31 941.961 1990.31 944.311 1988.58 946.365 1986.46 948.053 1983.94 949.377 1981.86 950.458 1979.46 951.228 1976.73 951.687 1974 952.147 1970.38 952.376 1965.87 952.376L1951.2 952.376 1951.2 950.391C1952.44 950.066 1953.33 949.756 1953.87 949.458 1954.41 949.161 1954.83 948.783 1955.13 948.324 1955.43 947.864 1955.64 947.202 1955.78 946.338 1955.91 945.473 1955.98 944.109 1955.98 942.245L1955.98 907.188C1955.98 905.297 1955.91 903.926 1955.78 903.075 1955.64 902.224 1955.42 901.569 1955.11 901.109 1954.8 900.65 1954.39 900.279 1953.87 899.995 1953.36 899.711 1952.47 899.394 1951.2 899.042Z" fill-rule="evenodd"/><text fill="#000000" fill-opacity="0" font-family="Arial,Arial_MSFontService,sans-serif" font-size="73.4355" x="1951.2" y="961.313">Deg</text><path d="M3124.73 900.758C3123.05 900.758 3121.29 900.799 3119.46 900.88L3113.95 925.439 3118.16 925.439C3121.43 925.439 3124.07 925.102 3126.08 924.426 3128.1 923.751 3129.74 922.704 3131.03 921.285 3132.31 919.867 3133.3 918.185 3134.01 916.24 3134.71 914.294 3135.06 912.16 3135.06 909.836 3135.06 906.702 3134.26 904.406 3132.67 902.947 3131.08 901.488 3128.43 900.758 3124.73 900.758ZM3107.75 897.192 3125.62 897.192C3128.83 897.192 3131.47 897.442 3133.54 897.942 3135.61 898.441 3137.31 899.211 3138.65 900.252 3139.98 901.292 3140.98 902.609 3141.65 904.203 3142.31 905.797 3142.64 907.648 3142.64 909.755 3142.64 913.808 3141.68 917.32 3139.76 920.292 3137.84 923.264 3135.24 925.453 3131.96 926.858 3128.68 928.263 3124.74 928.965 3120.15 928.965 3117.39 928.965 3115.09 928.911 3113.26 928.803L3110.66 940.718C3110.42 941.826 3110.25 942.677 3110.16 943.271 3110.06 943.866 3109.98 944.508 3109.91 945.197 3109.85 945.885 3109.81 946.5 3109.81 947.041 3109.81 947.878 3109.95 948.533 3110.22 949.006 3110.49 949.479 3110.89 949.823 3111.43 950.04 3111.97 950.256 3112.91 950.418 3114.23 950.526L3113.78 952.512 3097.13 952.512 3097.57 950.526C3098.6 950.364 3099.37 950.1 3099.88 949.736 3100.4 949.371 3100.83 948.864 3101.18 948.216 3101.53 947.567 3101.86 946.777 3102.15 945.845 3102.45 944.913 3102.9 943.109 3103.49 940.435L3110.38 909.229C3110.97 906.527 3111.27 904.392 3111.27 902.825 3111.27 901.501 3110.96 900.583 3110.34 900.069 3109.72 899.556 3108.7 899.259 3107.3 899.178ZM3053.21 897.192 3069.58 897.192 3069.13 899.178C3067.97 899.367 3067.05 899.765 3066.36 900.373 3065.67 900.981 3065.32 901.866 3065.32 903.028 3065.32 904.757 3065.77 906.932 3066.66 909.553L3070.02 919.36 3077.52 909.877C3078.68 908.418 3079.59 907.222 3080.24 906.29 3080.89 905.358 3081.35 904.534 3081.64 903.818 3081.92 903.102 3082.06 902.474 3082.06 901.934 3082.06 901.204 3081.84 900.583 3081.41 900.069 3080.98 899.556 3080.24 899.259 3079.18 899.178L3079.63 897.192 3094.75 897.192 3094.3 899.178C3093.49 899.421 3092.73 899.813 3092.01 900.353 3091.29 900.893 3090.44 901.704 3089.46 902.785 3088.47 903.865 3086.64 906 3083.97 909.188L3071.89 923.616 3077.81 940.07C3078.7 942.555 3079.43 944.454 3079.99 945.764 3080.56 947.074 3081.06 948.04 3081.49 948.662 3081.84 949.121 3082.21 949.479 3082.59 949.736 3082.97 949.992 3083.6 950.256 3084.49 950.526L3084.09 952.512 3067.71 952.512 3068.12 950.526C3069.36 950.337 3070.31 949.911 3070.98 949.249 3071.64 948.587 3071.97 947.729 3071.97 946.676 3071.97 945.082 3071.65 943.312 3071 941.367L3066.78 929.006 3057.54 940.556C3056.16 942.285 3055.16 943.697 3054.54 944.791 3053.92 945.885 3053.61 946.824 3053.61 947.608 3053.61 948.662 3053.86 949.384 3054.36 949.776 3054.86 950.168 3055.57 950.418 3056.49 950.526L3056.04 952.512 3040.97 952.512 3041.37 950.526C3042.21 950.256 3042.97 949.864 3043.66 949.351 3044.35 948.837 3045.24 947.966 3046.34 946.737 3047.43 945.507 3049.34 943.271 3052.07 940.029L3064.92 924.75 3058.92 908.094C3057.92 905.311 3057.14 903.386 3056.57 902.319 3056 901.251 3055.44 900.502 3054.89 900.069 3054.33 899.637 3053.62 899.34 3052.76 899.178Z" fill-rule="evenodd"/><text fill="#000000" fill-opacity="0" font-family="Arial,Arial_MSFontService,sans-serif" font-size="55.3198" x="3040.97" y="945.597">ğ‘‹ğ‘ƒ</text><path d="M1701.35 1218.18C1699.97 1219.21 1698.94 1220.3 1698.25 1221.45 1697.56 1222.59 1697.22 1223.9 1697.22 1225.36 1697.22 1227.79 1698.18 1229.58 1700.11 1230.73 1702.05 1231.88 1705 1232.45 1708.97 1232.45 1711.4 1232.45 1713.49 1232.12 1715.23 1231.48 1716.97 1230.83 1718.3 1229.9 1719.22 1228.68 1720.14 1227.46 1720.6 1226.05 1720.6 1224.42 1720.6 1223.67 1720.51 1222.93 1720.32 1222.22 1720.13 1221.5 1719.77 1220.86 1719.24 1220.29 1718.72 1219.72 1717.97 1219.27 1716.99 1218.93 1716.02 1218.6 1714.75 1218.43 1713.18 1218.43L1707.15 1218.43C1704.96 1218.43 1703.03 1218.35 1701.35 1218.18ZM1668.58 1181.3C1665.79 1181.3 1663.57 1182.42 1661.91 1184.65 1660.25 1186.88 1659.27 1190.06 1658.97 1194.19L1676.68 1194.19C1676.52 1191.27 1676.16 1188.89 1675.59 1187.04 1675.02 1185.19 1674.17 1183.77 1673.04 1182.78 1671.9 1181.8 1670.41 1181.3 1668.58 1181.3ZM1708.24 1181.18C1705.67 1181.18 1703.71 1182.03 1702.36 1183.74 1701.01 1185.44 1700.34 1187.9 1700.34 1191.11 1700.34 1194.49 1701.03 1197.1 1702.4 1198.93 1703.78 1200.77 1705.77 1201.69 1708.36 1201.69 1709.74 1201.69 1710.92 1201.43 1711.89 1200.9 1712.86 1200.37 1713.65 1199.65 1714.26 1198.73 1714.87 1197.81 1715.31 1196.75 1715.6 1195.55 1715.88 1194.35 1716.02 1193.08 1716.02 1191.76 1716.02 1189.38 1715.68 1187.4 1715.01 1185.8 1714.33 1184.21 1713.41 1183.04 1712.25 1182.3 1711.09 1181.55 1709.75 1181.18 1708.24 1181.18ZM1708.32 1178.1C1710.27 1178.1 1712.2 1178.33 1714.12 1178.79L1728.46 1178.79 1728.46 1182.88 1720.97 1182.6 1720.6 1183.05C1721.44 1183.88 1722.1 1185.03 1722.59 1186.47 1723.07 1187.92 1723.32 1189.48 1723.32 1191.15 1723.32 1195.56 1721.96 1198.95 1719.24 1201.34 1716.53 1203.74 1712.67 1204.93 1707.67 1204.93 1705.43 1204.93 1703.5 1204.65 1701.88 1204.08 1699.82 1205.65 1698.8 1207.19 1698.8 1208.7 1698.8 1209.7 1698.99 1210.46 1699.39 1210.97 1699.78 1211.48 1700.43 1211.85 1701.33 1212.06 1702.24 1212.28 1703.61 1212.39 1705.44 1212.39L1715.17 1212.39C1718.03 1212.39 1720.37 1212.83 1722.18 1213.73 1723.99 1214.62 1725.28 1215.81 1726.05 1217.31 1726.82 1218.81 1727.21 1220.56 1727.21 1222.56 1727.21 1225.1 1726.48 1227.36 1725.02 1229.35 1723.56 1231.33 1721.45 1232.88 1718.7 1233.99 1715.94 1235.1 1712.73 1235.65 1709.05 1235.65 1706.32 1235.65 1703.83 1235.49 1701.57 1235.16 1699.32 1234.84 1697.39 1234.29 1695.78 1233.52 1694.17 1232.75 1692.93 1231.74 1692.05 1230.48 1691.17 1229.23 1690.73 1227.65 1690.73 1225.76 1690.73 1224.06 1691.3 1222.51 1692.43 1221.12 1693.57 1219.73 1695.18 1218.51 1697.26 1217.45 1695.99 1216.94 1694.99 1216.18 1694.26 1215.18 1693.53 1214.18 1693.16 1213.01 1693.16 1211.66 1693.16 1210.12 1693.6 1208.71 1694.46 1207.42 1695.33 1206.14 1696.85 1204.67 1699.04 1203.03 1697.1 1201.89 1695.62 1200.35 1694.6 1198.41 1693.59 1196.46 1693.08 1194.25 1693.08 1191.76 1693.08 1189.44 1693.47 1187.42 1694.24 1185.7 1695.01 1183.99 1696.08 1182.57 1697.44 1181.45 1698.8 1180.32 1700.42 1179.49 1702.28 1178.93 1704.15 1178.38 1706.16 1178.1 1708.32 1178.1ZM1668.98 1178.1C1671.71 1178.1 1674.04 1178.53 1675.95 1179.4 1677.87 1180.26 1679.41 1181.45 1680.55 1182.95 1681.7 1184.44 1682.59 1186.34 1683.23 1188.62 1683.86 1190.9 1684.22 1193.88 1684.3 1197.56L1658.77 1197.56 1658.77 1198.28C1658.77 1201.47 1659.13 1204.15 1659.84 1206.33 1660.56 1208.5 1661.74 1210.21 1663.37 1211.44 1665 1212.67 1667.13 1213.28 1669.75 1213.28 1671.97 1213.28 1673.96 1212.87 1675.73 1212.04 1677.5 1211.22 1679.26 1209.88 1681.02 1208.01L1683.49 1210.65C1681.76 1212.46 1680.18 1213.87 1678.73 1214.9 1677.28 1215.93 1675.7 1216.73 1673.97 1217.31 1672.24 1217.89 1670.33 1218.18 1668.25 1218.18 1662.69 1218.18 1658.49 1216.52 1655.65 1213.18 1652.81 1209.84 1651.39 1204.92 1651.39 1198.41 1651.39 1194.38 1652.12 1190.83 1653.56 1187.75 1655.01 1184.67 1657.07 1182.29 1659.74 1180.61 1662.42 1178.94 1665.5 1178.1 1668.98 1178.1ZM1615.63 1165.74C1613.79 1165.74 1612.05 1165.8 1610.4 1165.9L1610.4 1213.77C1611.48 1213.87 1613.08 1213.93 1615.19 1213.93 1617.46 1213.93 1619.48 1213.74 1621.26 1213.36 1623.05 1212.98 1624.67 1212.39 1626.13 1211.58 1627.59 1210.77 1628.9 1209.64 1630.06 1208.19 1631.22 1206.75 1632.17 1205.09 1632.9 1203.21 1633.63 1201.33 1634.16 1199.24 1634.5 1196.95 1634.83 1194.65 1635 1192.14 1635 1189.41 1635 1183.92 1634.21 1179.42 1632.63 1175.89 1631.05 1172.37 1628.82 1169.79 1625.95 1168.17 1623.07 1166.55 1619.63 1165.74 1615.63 1165.74ZM1598.04 1162.22 1615.79 1162.22C1620.9 1162.22 1625.08 1162.78 1628.34 1163.9 1631.59 1165.02 1634.34 1166.67 1636.58 1168.86 1638.83 1171.05 1640.5 1173.77 1641.61 1177.03 1642.72 1180.28 1643.27 1184.17 1643.27 1188.68 1643.27 1193.25 1642.75 1197.26 1641.71 1200.74 1640.67 1204.21 1639.15 1207.12 1637.15 1209.47 1635.42 1211.52 1633.3 1213.21 1630.79 1214.54 1628.71 1215.62 1626.3 1216.39 1623.57 1216.85 1620.85 1217.31 1617.23 1217.54 1612.71 1217.54L1598.04 1217.54 1598.04 1215.55C1599.29 1215.23 1600.18 1214.91 1600.72 1214.62 1601.26 1214.32 1601.68 1213.94 1601.97 1213.48 1602.27 1213.02 1602.49 1212.36 1602.62 1211.5 1602.76 1210.63 1602.82 1209.27 1602.82 1207.4L1602.82 1172.35C1602.82 1170.46 1602.76 1169.08 1602.62 1168.23 1602.49 1167.38 1602.26 1166.73 1601.95 1166.27 1601.64 1165.81 1601.23 1165.44 1600.72 1165.15 1600.2 1164.87 1599.31 1164.55 1598.04 1164.2Z" fill-rule="evenodd"/><text fill="#000000" fill-opacity="0" font-family="Arial,Arial_MSFontService,sans-serif" font-size="73.4355" x="1598.04" y="1226.47">Deg</text><path d="M2416.25 1170.12 2401.82 1195.65 2417.67 1195.65 2416.98 1182.6C2416.9 1180.82 2416.83 1178.59 2416.78 1175.91 2416.72 1173.24 2416.7 1171.31 2416.7 1170.12ZM2464.24 1165.78C2462.56 1165.78 2460.81 1165.82 2458.97 1165.9L2453.46 1190.46 2457.67 1190.46C2460.94 1190.46 2463.58 1190.13 2465.6 1189.45 2467.61 1188.77 2469.26 1187.73 2470.54 1186.31 2471.82 1184.89 2472.82 1183.21 2473.52 1181.26 2474.22 1179.32 2474.57 1177.18 2474.57 1174.86 2474.57 1171.73 2473.78 1169.43 2472.18 1167.97 2470.59 1166.51 2467.94 1165.78 2464.24 1165.78ZM2447.26 1162.22 2465.13 1162.22C2468.35 1162.22 2470.99 1162.47 2473.05 1162.97 2475.12 1163.46 2476.82 1164.23 2478.16 1165.28 2479.5 1166.32 2480.5 1167.63 2481.16 1169.23 2481.82 1170.82 2482.15 1172.67 2482.15 1174.78 2482.15 1178.83 2481.19 1182.34 2479.28 1185.32 2477.36 1188.29 2474.76 1190.48 2471.47 1191.88 2468.19 1193.29 2464.25 1193.99 2459.66 1193.99 2456.9 1193.99 2454.61 1193.93 2452.77 1193.83L2450.18 1205.74C2449.93 1206.85 2449.76 1207.7 2449.67 1208.29 2449.58 1208.89 2449.49 1209.53 2449.43 1210.22 2449.36 1210.91 2449.33 1211.52 2449.33 1212.06 2449.33 1212.9 2449.46 1213.56 2449.73 1214.03 2450 1214.5 2450.41 1214.85 2450.95 1215.06 2451.49 1215.28 2452.42 1215.44 2453.74 1215.55L2453.3 1217.54 2436.64 1217.54 2437.09 1215.55C2438.11 1215.39 2438.88 1215.12 2439.4 1214.76 2439.91 1214.39 2440.34 1213.89 2440.69 1213.24 2441.04 1212.59 2441.37 1211.8 2441.67 1210.87 2441.96 1209.94 2442.41 1208.13 2443 1205.46L2449.89 1174.25C2450.49 1171.55 2450.78 1169.42 2450.78 1167.85 2450.78 1166.52 2450.47 1165.61 2449.85 1165.09 2449.23 1164.58 2448.22 1164.28 2446.81 1164.2ZM2416.49 1161.57 2422.61 1161.57 2425.53 1206.75C2425.67 1208.89 2425.91 1210.56 2426.26 1211.76 2426.61 1212.96 2427.09 1213.85 2427.7 1214.43 2428.31 1215.02 2429.19 1215.39 2430.36 1215.55L2429.91 1217.54 2413.05 1217.54 2413.5 1215.55C2415.09 1215.41 2416.28 1214.79 2417.06 1213.69 2417.85 1212.58 2418.24 1210.63 2418.24 1207.85 2418.24 1206.8 2418.2 1205.65 2418.12 1204.4L2417.83 1199.18 2400 1199.18 2397.77 1203.15C2396.72 1205.01 2395.95 1206.61 2395.46 1207.95 2394.97 1209.29 2394.73 1210.47 2394.73 1211.5 2394.73 1213.77 2396.1 1215.12 2398.82 1215.55L2398.38 1217.54 2381.8 1217.54 2382.25 1215.55C2383.09 1215.44 2383.88 1215.11 2384.62 1214.56 2385.36 1214 2386.15 1213.16 2386.99 1212.04 2387.83 1210.92 2389 1209.06 2390.52 1206.47Z" fill-rule="evenodd"/><text fill="#000000" fill-opacity="0" font-family="Arial,Arial_MSFontService,sans-serif" font-size="55.9683" x="2381.8" y="1210.54">ğ´ğ‘ƒ</text><path d="M1319.23 1464.46C1321.31 1464.46 1322.9 1464.94 1324.01 1465.92 1325.12 1466.89 1325.9 1468.42 1326.36 1470.52 1326.82 1472.61 1327.05 1475.67 1327.05 1479.7 1327.05 1481.02 1327.02 1482.94 1326.97 1485.45L1326.8 1491.85C1326.59 1497.93 1326.48 1502.71 1326.48 1506.2 1326.48 1509.01 1326.54 1511.21 1326.66 1512.79 1326.78 1514.37 1326.98 1515.56 1327.25 1516.37 1327.52 1517.18 1327.86 1517.73 1328.26 1518.01 1328.67 1518.3 1329.17 1518.44 1329.76 1518.44 1330.47 1518.44 1331.22 1518.2 1332.01 1517.73 1332.81 1517.26 1333.79 1516.4 1334.95 1515.16L1337.22 1517.43C1335.46 1519.21 1333.73 1520.6 1332.01 1521.6 1330.3 1522.6 1328.78 1523.1 1327.45 1523.1 1325.91 1523.1 1324.74 1522.79 1323.93 1522.17 1323.12 1521.55 1322.53 1520.52 1322.16 1519.09 1321.8 1517.66 1321.62 1515.55 1321.62 1512.77 1321.62 1508.93 1321.9 1502.65 1322.47 1493.92L1322.06 1493.92C1313.96 1505.81 1307.84 1515.32 1303.7 1522.45L1295.48 1522.45 1295.88 1520.47C1297.13 1518.95 1298.37 1517.38 1299.61 1515.74 1300.85 1514.11 1302.37 1512.04 1304.15 1509.52L1322.31 1483.75C1322.28 1480.99 1322.16 1478.68 1321.94 1476.82 1321.73 1474.95 1321.43 1473.47 1321.05 1472.38 1320.67 1471.29 1320.17 1470.48 1319.55 1469.97 1318.93 1469.46 1318.08 1469.2 1317 1469.2 1316.11 1469.2 1315.2 1469.46 1314.28 1469.97 1313.36 1470.48 1312.03 1471.54 1310.27 1473.13L1308.16 1470.78C1310.65 1468.32 1312.71 1466.65 1314.34 1465.77 1315.98 1464.9 1317.6 1464.46 1319.23 1464.46Z" fill-rule="evenodd"/><text fill="#000000" fill-opacity="0" font-family="Arial,Arial_MSFontService,sans-serif" font-size="58.6431" x="1295.48" y="1515.77">ğœ†</text><path d="M1372.73 1466.48C1375.3 1466.48 1377.65 1466.64 1379.78 1466.95 1381.92 1467.26 1384.26 1467.82 1386.79 1468.63L1384.32 1479.53 1380.43 1479.53C1380.19 1476.16 1379.45 1473.73 1378.2 1472.26 1376.96 1470.79 1374.93 1470.05 1372.12 1470.05 1369.85 1470.05 1367.73 1470.63 1365.76 1471.79 1363.79 1472.95 1361.92 1474.69 1360.15 1477 1358.38 1479.31 1356.78 1482.22 1355.37 1485.73 1353.95 1489.25 1352.85 1492.91 1352.06 1496.72 1351.28 1500.53 1350.89 1504.11 1350.89 1507.46 1350.89 1511.67 1351.61 1514.74 1353.06 1516.68 1354.5 1518.61 1356.76 1519.57 1359.84 1519.57 1360.95 1519.57 1362.09 1519.45 1363.25 1519.19 1364.41 1518.93 1365.5 1518.49 1366.51 1517.87 1367.52 1517.25 1368.42 1516.41 1369.21 1515.36 1369.99 1514.31 1370.56 1512.98 1370.91 1511.39L1371.35 1509.48C1371.95 1506.94 1372.25 1504.77 1372.25 1502.96 1372.25 1501.69 1371.93 1500.8 1371.29 1500.3 1370.66 1499.8 1369.65 1499.51 1368.27 1499.43L1368.72 1497.45 1384.93 1497.45 1384.48 1499.43C1383.46 1499.65 1382.72 1499.89 1382.26 1500.16 1381.8 1500.43 1381.38 1500.84 1381.02 1501.4 1380.66 1501.95 1380.3 1502.8 1379.95 1503.93 1379.59 1505.07 1379.14 1506.93 1378.57 1509.52L1375.77 1522.25 1372.57 1523.14 1370.46 1519.94C1367.65 1521.26 1365.44 1522.12 1363.82 1522.51 1362.19 1522.9 1360.55 1523.1 1358.87 1523.1 1353.79 1523.1 1349.93 1521.64 1347.28 1518.72 1344.63 1515.81 1343.31 1511.54 1343.31 1505.92 1343.31 1501.89 1343.98 1497.37 1345.34 1492.36 1346.69 1487.35 1348.65 1482.87 1351.23 1478.93 1353.81 1474.98 1356.93 1471.92 1360.59 1469.75 1364.26 1467.57 1368.3 1466.48 1372.73 1466.48Z" fill-rule="evenodd"/><text fill="#000000" fill-opacity="0" font-family="Arial,Arial_MSFontService,sans-serif" font-size="56.6572" x="1343.31" y="1516.06">ğº</text><path d="M1414.33 1464.46C1416.41 1464.46 1418 1464.94 1419.11 1465.92 1420.22 1466.89 1421 1468.42 1421.46 1470.52 1421.92 1472.61 1422.15 1475.67 1422.15 1479.7 1422.15 1481.02 1422.13 1482.94 1422.07 1485.45L1421.91 1491.85C1421.69 1497.93 1421.58 1502.71 1421.58 1506.2 1421.58 1509.01 1421.65 1511.21 1421.77 1512.79 1421.89 1514.37 1422.08 1515.56 1422.35 1516.37 1422.62 1517.18 1422.96 1517.73 1423.37 1518.01 1423.77 1518.3 1424.27 1518.44 1424.87 1518.44 1425.57 1518.44 1426.32 1518.2 1427.12 1517.73 1427.91 1517.26 1428.89 1516.4 1430.05 1515.16L1432.32 1517.43C1430.57 1519.21 1428.83 1520.6 1427.12 1521.6 1425.4 1522.6 1423.88 1523.1 1422.56 1523.1 1421.02 1523.1 1419.84 1522.79 1419.03 1522.17 1418.22 1521.55 1417.63 1520.52 1417.27 1519.09 1416.9 1517.66 1416.72 1515.55 1416.72 1512.77 1416.72 1508.93 1417.01 1502.65 1417.57 1493.92L1417.17 1493.92C1409.06 1505.81 1402.94 1515.32 1398.81 1522.45L1390.58 1522.45 1390.99 1520.47C1392.23 1518.95 1393.47 1517.38 1394.72 1515.74 1395.96 1514.11 1397.47 1512.04 1399.25 1509.52L1417.41 1483.75C1417.38 1480.99 1417.26 1478.68 1417.05 1476.82 1416.83 1474.95 1416.53 1473.47 1416.15 1472.38 1415.78 1471.29 1415.28 1470.48 1414.65 1469.97 1414.03 1469.46 1413.18 1469.2 1412.1 1469.2 1411.21 1469.2 1410.3 1469.46 1409.39 1469.97 1408.47 1470.48 1407.13 1471.54 1405.37 1473.13L1403.27 1470.78C1405.75 1468.32 1407.81 1466.65 1409.45 1465.77 1411.08 1464.9 1412.71 1464.46 1414.33 1464.46Z" fill-rule="evenodd"/><text fill="#000000" fill-opacity="0" font-family="Arial,Arial_MSFontService,sans-serif" font-size="58.6431" x="1390.58" y="1515.77">ğœ†</text><path d="M1455.56 1483.06C1458.07 1483.06 1460.36 1483.21 1462.43 1483.5 1464.49 1483.8 1466.55 1484.32 1468.61 1485.04L1466.78 1493.56 1463.5 1493.56C1463.2 1491.15 1462.41 1489.33 1461.13 1488.08 1459.85 1486.84 1457.83 1486.22 1455.07 1486.22 1452.94 1486.22 1451.21 1486.77 1449.88 1487.86 1448.56 1488.96 1447.9 1490.39 1447.9 1492.18 1447.9 1493.15 1448.07 1494.01 1448.4 1494.75 1448.74 1495.49 1449.42 1496.31 1450.45 1497.2 1451.48 1498.09 1453.07 1499.19 1455.23 1500.49 1456.93 1501.51 1458.3 1502.45 1459.33 1503.3 1460.35 1504.15 1461.16 1505 1461.76 1505.84 1462.35 1506.67 1462.78 1507.56 1463.05 1508.49 1463.32 1509.42 1463.46 1510.55 1463.46 1511.87 1463.46 1514.28 1462.82 1516.34 1461.53 1518.05 1460.25 1519.77 1458.51 1521.05 1456.31 1521.88 1454.1 1522.72 1451.6 1523.14 1448.79 1523.14 1446.55 1523.14 1444.34 1522.97 1442.18 1522.63 1440.02 1522.3 1437.62 1521.72 1434.97 1520.91L1436.91 1512.08 1440.07 1512.08C1440.18 1514.67 1440.91 1516.63 1442.26 1517.95 1443.61 1519.28 1445.76 1519.94 1448.71 1519.94 1451.27 1519.94 1453.28 1519.36 1454.73 1518.22 1456.17 1517.07 1456.89 1515.44 1456.89 1513.33 1456.89 1512.12 1456.69 1511.07 1456.29 1510.19 1455.88 1509.31 1455.22 1508.47 1454.3 1507.66 1453.38 1506.85 1451.92 1505.84 1449.92 1504.62 1447.82 1503.35 1446.17 1502.2 1445 1501.17 1443.82 1500.15 1442.94 1499.03 1442.34 1497.83 1441.75 1496.63 1441.45 1495.24 1441.45 1493.68 1441.45 1491.54 1442.03 1489.67 1443.18 1488.06 1444.32 1486.46 1445.96 1485.22 1448.1 1484.36 1450.23 1483.49 1452.72 1483.06 1455.56 1483.06Z" fill-rule="evenodd"/><text fill="#000000" fill-opacity="0" font-family="Arial,Arial_MSFontService,sans-serif" font-size="40.0815" x="1434.97" y="1518.13">ğ‘ </text><path d="M1495.68 1464.46C1497.76 1464.46 1499.36 1464.94 1500.47 1465.92 1501.57 1466.89 1502.36 1468.42 1502.82 1470.52 1503.28 1472.61 1503.51 1475.67 1503.51 1479.7 1503.51 1481.02 1503.48 1482.94 1503.43 1485.45L1503.26 1491.85C1503.05 1497.93 1502.94 1502.71 1502.94 1506.2 1502.94 1509.01 1503 1511.21 1503.12 1512.79 1503.24 1514.37 1503.44 1515.56 1503.71 1516.37 1503.98 1517.18 1504.32 1517.73 1504.72 1518.01 1505.13 1518.3 1505.63 1518.44 1506.22 1518.44 1506.92 1518.44 1507.67 1518.2 1508.47 1517.73 1509.27 1517.26 1510.25 1516.4 1511.41 1515.16L1513.68 1517.43C1511.92 1519.21 1510.19 1520.6 1508.47 1521.6 1506.76 1522.6 1505.24 1523.1 1503.91 1523.1 1502.37 1523.1 1501.2 1522.79 1500.39 1522.17 1499.58 1521.55 1498.99 1520.52 1498.62 1519.09 1498.26 1517.66 1498.08 1515.55 1498.08 1512.77 1498.08 1508.93 1498.36 1502.65 1498.93 1493.92L1498.52 1493.92C1490.42 1505.81 1484.3 1515.32 1480.16 1522.45L1471.94 1522.45 1472.34 1520.47C1473.58 1518.95 1474.83 1517.38 1476.07 1515.74 1477.31 1514.11 1478.83 1512.04 1480.61 1509.52L1498.76 1483.75C1498.74 1480.99 1498.62 1478.68 1498.4 1476.82 1498.18 1474.95 1497.89 1473.47 1497.51 1472.38 1497.13 1471.29 1496.63 1470.48 1496.01 1469.97 1495.39 1469.46 1494.54 1469.2 1493.46 1469.2 1492.56 1469.2 1491.66 1469.46 1490.74 1469.97 1489.82 1470.48 1488.48 1471.54 1486.73 1473.13L1484.62 1470.78C1487.11 1468.32 1489.17 1466.65 1490.8 1465.77 1492.44 1464.9 1494.06 1464.46 1495.68 1464.46Z" fill-rule="evenodd"/><text fill="#000000" fill-opacity="0" font-family="Arial,Arial_MSFontService,sans-serif" font-size="58.6431" x="1471.94" y="1515.77">ğœ†</text><path d="M1530.3 1483.02C1531.14 1483.02 1531.88 1483.11 1532.51 1483.3 1533.15 1483.49 1533.71 1483.78 1534.2 1484.17 1534.68 1484.57 1535.11 1485.07 1535.49 1485.69 1535.87 1486.31 1536.24 1487.16 1536.59 1488.23 1536.94 1489.29 1537.27 1490.62 1537.58 1492.2 1537.89 1493.78 1538.17 1495.42 1538.41 1497.12L1538.82 1497.12C1541.41 1493.47 1543.37 1490.81 1544.71 1489.12 1546.05 1487.43 1547.18 1486.17 1548.1 1485.35 1549.01 1484.52 1549.9 1483.94 1550.75 1483.61 1551.6 1483.27 1552.73 1483.1 1554.13 1483.1 1555.4 1483.1 1556.44 1483.26 1557.26 1483.59L1555.63 1490.92 1552.8 1490.92C1552.64 1489.79 1552.16 1489.22 1551.38 1489.22 1551.14 1489.22 1550.88 1489.26 1550.61 1489.34 1550.34 1489.42 1550.01 1489.6 1549.62 1489.87 1549.22 1490.14 1548.65 1490.66 1547.89 1491.45 1547.14 1492.23 1546.29 1493.19 1545.34 1494.33 1544.39 1495.46 1543.42 1496.65 1542.42 1497.89L1539.67 1501.34C1540.15 1503.93 1540.61 1506.17 1541.04 1508.06 1541.48 1509.96 1541.86 1511.53 1542.2 1512.79 1542.54 1514.04 1542.83 1515.04 1543.09 1515.76 1543.35 1516.49 1543.62 1517.04 1543.92 1517.41 1544.22 1517.77 1544.52 1518.03 1544.83 1518.18 1545.14 1518.32 1545.5 1518.4 1545.91 1518.4 1546.64 1518.4 1547.35 1518.12 1548.04 1517.55 1548.72 1516.98 1549.72 1515.7 1551.01 1513.7L1553.65 1515.44C1551.76 1518.25 1550.05 1520.23 1548.52 1521.38 1547 1522.53 1545.18 1523.1 1543.07 1523.1 1541.91 1523.1 1540.92 1522.89 1540.11 1522.47 1539.3 1522.05 1538.6 1521.38 1538 1520.47 1537.41 1519.55 1536.88 1518.12 1536.42 1516.17 1535.59 1512.71 1535.07 1510.06 1534.88 1508.23L1534.48 1508.23C1531.61 1512.25 1529.49 1515.14 1528.1 1516.9 1526.7 1518.66 1525.56 1519.95 1524.65 1520.79 1523.75 1521.63 1522.87 1522.22 1522.02 1522.55 1521.17 1522.89 1520.04 1523.06 1518.63 1523.06 1517.36 1523.06 1516.32 1522.9 1515.51 1522.57L1517.13 1515.24 1519.97 1515.24C1520.13 1516.37 1520.6 1516.94 1521.39 1516.94 1521.77 1516.94 1522.17 1516.84 1522.58 1516.64 1523 1516.43 1523.6 1515.95 1524.39 1515.18 1525.17 1514.41 1526.25 1513.2 1527.63 1511.55 1529.01 1509.9 1531.01 1507.43 1533.63 1504.13 1533.22 1502 1532.8 1499.95 1532.37 1497.97 1531.94 1496 1531.49 1494.16 1531.03 1492.46 1530.57 1490.76 1530.2 1489.64 1529.9 1489.12 1529.6 1488.59 1529.28 1488.23 1528.95 1488.02 1528.61 1487.82 1528.18 1487.72 1527.67 1487.72 1527.1 1487.72 1526.59 1487.85 1526.13 1488.1 1525.67 1488.36 1525.17 1488.81 1524.63 1489.44 1524.09 1490.08 1523.37 1491.07 1522.48 1492.42L1519.85 1490.68C1521.55 1488.11 1523.19 1486.19 1524.75 1484.92 1526.32 1483.65 1528.17 1483.02 1530.3 1483.02Z" fill-rule="evenodd"/><text fill="#000000" fill-opacity="0" font-family="Arial,Arial_MSFontService,sans-serif" font-size="40.0815" x="1515.51" y="1518.09">ğ‘¥</text><path d="M1570.15 1463.73 1588.22 1463.73 1588.22 1466.85 1576.88 1466.85 1576.88 1537.89 1588.22 1537.89 1588.22 1541.01 1570.15 1541.01Z" fill-rule="evenodd"/><text fill="#000000" fill-opacity="0" font-family="Arial,Arial_MSFontService,sans-serif" font-size="77.2856" x="1570.15" y="1531.35">[</text><path d="M1618.73 1470.7C1617.3 1470.7 1615.79 1470.75 1614.2 1470.86L1609.01 1494.33 1613.79 1494.33C1617.71 1494.33 1620.8 1493.8 1623.07 1492.75 1625.34 1491.69 1627.14 1489.96 1628.46 1487.56 1629.78 1485.15 1630.45 1482.56 1630.45 1479.78 1630.45 1478.61 1630.34 1477.58 1630.12 1476.68 1629.91 1475.77 1629.62 1475.02 1629.27 1474.43 1628.92 1473.83 1628.47 1473.31 1627.93 1472.85 1627.39 1472.39 1626.72 1471.99 1625.91 1471.65 1625.1 1471.31 1624.16 1471.07 1623.09 1470.92 1622.02 1470.77 1620.57 1470.7 1618.73 1470.7ZM1602.48 1467.13 1620.52 1467.13C1623.38 1467.13 1625.72 1467.3 1627.53 1467.64 1629.34 1467.98 1630.89 1468.48 1632.17 1469.16 1633.45 1469.83 1634.53 1470.7 1635.39 1471.77 1636.26 1472.84 1636.9 1474.04 1637.34 1475.38 1637.77 1476.72 1637.98 1478.14 1637.98 1479.65 1637.98 1483.82 1636.71 1487.35 1634.18 1490.27 1631.64 1493.19 1627.89 1495.41 1622.95 1496.92L1622.95 1497.37C1624.25 1498.34 1625.29 1499.5 1626.09 1500.85 1626.89 1502.2 1627.53 1504.08 1628.02 1506.48L1628.95 1511.19C1629.24 1512.67 1629.58 1514.01 1629.96 1515.2 1630.34 1516.39 1630.79 1517.33 1631.32 1518.03 1631.84 1518.74 1632.44 1519.26 1633.1 1519.61 1633.76 1519.97 1634.73 1520.25 1636 1520.47L1635.59 1522.45 1624.37 1522.45C1623.5 1520.05 1622.73 1517.18 1622.06 1513.86L1620.27 1505.27C1619.98 1503.78 1619.62 1502.53 1619.2 1501.52 1618.78 1500.51 1618.28 1499.72 1617.7 1499.17 1617.12 1498.61 1616.44 1498.25 1615.67 1498.07 1614.9 1497.9 1613.97 1497.81 1612.86 1497.81L1608.24 1497.81 1605.4 1510.66C1605.16 1511.71 1604.99 1512.55 1604.89 1513.17 1604.8 1513.79 1604.72 1514.45 1604.65 1515.14 1604.58 1515.83 1604.55 1516.44 1604.55 1516.98 1604.55 1517.82 1604.68 1518.47 1604.95 1518.95 1605.23 1519.42 1605.63 1519.76 1606.17 1519.98 1606.71 1520.2 1607.64 1520.36 1608.97 1520.47L1608.52 1522.45 1591.86 1522.45 1592.31 1520.47C1593.34 1520.3 1594.11 1520.04 1594.62 1519.68 1595.13 1519.31 1595.57 1518.8 1595.92 1518.16 1596.27 1517.51 1596.59 1516.72 1596.89 1515.78 1597.19 1514.85 1597.63 1513.05 1598.23 1510.37L1605.12 1479.17C1605.71 1476.47 1606.01 1474.33 1606.01 1472.77 1606.01 1471.44 1605.7 1470.52 1605.08 1470.01 1604.46 1469.5 1603.44 1469.2 1602.04 1469.12Z" fill-rule="evenodd"/><text fill="#000000" fill-opacity="0" font-family="Arial,Arial_MSFontService,sans-serif" font-size="55.3198" x="1591.86" y="1515.54">ğ‘…</text><path d="M1856.22 1448.63C1864.65 1450.85 1871.14 1456.59 1875.71 1465.86 1880.28 1475.13 1882.56 1486.09 1882.56 1498.77 1882.56 1511.44 1880.28 1522.41 1875.71 1531.67 1871.14 1540.94 1864.65 1546.68 1856.22 1548.9L1855.2 1545.58C1861.74 1543.12 1866.69 1537.76 1870.06 1529.51 1873.42 1521.25 1875.1 1511.02 1875.1 1498.81 1875.1 1486.57 1873.42 1476.31 1870.06 1468.05 1866.69 1459.78 1861.74 1454.42 1855.2 1451.96ZM1678.31 1448.63 1679.32 1451.96C1672.78 1454.42 1667.83 1459.78 1664.47 1468.05 1661.1 1476.31 1659.42 1486.57 1659.42 1498.81 1659.42 1511.02 1661.1 1521.25 1664.47 1529.51 1667.83 1537.76 1672.78 1543.12 1679.32 1545.58L1678.31 1548.9C1669.88 1546.68 1663.38 1540.94 1658.81 1531.67 1654.25 1522.41 1651.96 1511.44 1651.96 1498.77 1651.96 1486.09 1654.25 1475.13 1658.81 1465.86 1663.38 1456.59 1669.88 1450.85 1678.31 1448.63Z" fill-rule="evenodd"/><path d="M1716.62 1466.48C1719.19 1466.48 1721.54 1466.64 1723.67 1466.95 1725.81 1467.26 1728.14 1467.82 1730.68 1468.63L1728.21 1479.53 1724.32 1479.53C1724.08 1476.16 1723.33 1473.73 1722.09 1472.26 1720.85 1470.79 1718.82 1470.05 1716.01 1470.05 1713.74 1470.05 1711.62 1470.63 1709.65 1471.79 1707.68 1472.95 1705.81 1474.69 1704.04 1477 1702.27 1479.31 1700.67 1482.22 1699.25 1485.73 1697.84 1489.25 1696.73 1492.91 1695.95 1496.72 1695.17 1500.53 1694.78 1504.11 1694.78 1507.46 1694.78 1511.67 1695.5 1514.74 1696.94 1516.68 1698.39 1518.61 1700.65 1519.57 1703.73 1519.57 1704.84 1519.57 1705.97 1519.45 1707.14 1519.19 1708.3 1518.93 1709.39 1518.49 1710.4 1517.87 1711.41 1517.25 1712.31 1516.41 1713.09 1515.36 1713.88 1514.31 1714.44 1512.98 1714.8 1511.39L1715.24 1509.48C1715.84 1506.94 1716.13 1504.77 1716.13 1502.96 1716.13 1501.69 1715.82 1500.8 1715.18 1500.3 1714.55 1499.8 1713.54 1499.51 1712.16 1499.43L1712.61 1497.45 1728.82 1497.45 1728.37 1499.43C1727.35 1499.65 1726.6 1499.89 1726.14 1500.16 1725.68 1500.43 1725.27 1500.84 1724.91 1501.4 1724.54 1501.95 1724.18 1502.8 1723.83 1503.93 1723.48 1505.07 1723.02 1506.93 1722.46 1509.52L1719.66 1522.25 1716.46 1523.14 1714.35 1519.94C1711.54 1521.26 1709.32 1522.12 1707.7 1522.51 1706.08 1522.9 1704.43 1523.1 1702.76 1523.1 1697.68 1523.1 1693.82 1521.64 1691.17 1518.72 1688.52 1515.81 1687.2 1511.54 1687.2 1505.92 1687.2 1501.89 1687.87 1497.37 1689.22 1492.36 1690.57 1487.35 1692.54 1482.87 1695.12 1478.93 1697.7 1474.98 1700.82 1471.92 1704.48 1469.75 1708.14 1467.57 1712.19 1466.48 1716.62 1466.48Z" fill-rule="evenodd"/><text fill="#000000" fill-opacity="0" font-family="Arial,Arial_MSFontService,sans-serif" font-size="56.6572" x="1687.2" y="1516.06">ğº</text><path d="M1820.97 1460.34C1828.86 1462.42 1834.91 1466.91 1839.14 1473.81 1843.37 1480.72 1845.48 1489.04 1845.48 1498.8 1845.48 1508.58 1843.38 1516.91 1839.16 1523.78 1834.95 1530.66 1828.88 1535.14 1820.97 1537.22L1819.99 1534.1C1826.23 1532.02 1830.87 1527.91 1833.91 1521.78 1836.95 1515.64 1838.47 1507.85 1838.47 1498.39 1838.47 1489.26 1836.96 1481.68 1833.93 1475.64 1830.91 1469.6 1826.22 1465.54 1819.87 1463.46ZM1769.3 1460.34 1770.39 1463.46C1764.07 1465.54 1759.39 1469.6 1756.35 1475.64 1753.31 1481.68 1751.79 1489.26 1751.79 1498.39 1751.79 1507.85 1753.31 1515.64 1756.35 1521.78 1759.39 1527.91 1764.03 1532.02 1770.27 1534.1L1769.3 1537.22C1761.38 1535.14 1755.31 1530.66 1751.1 1523.78 1746.88 1516.91 1744.78 1508.58 1744.78 1498.8 1744.78 1489.04 1746.89 1480.72 1751.12 1473.81 1755.35 1466.91 1761.41 1462.42 1769.3 1460.34Z" fill-rule="evenodd"/><path d="M1787.73 1483.02C1788.56 1483.02 1789.3 1483.11 1789.94 1483.3 1790.57 1483.49 1791.13 1483.78 1791.62 1484.17 1792.1 1484.57 1792.54 1485.07 1792.91 1485.69 1793.29 1486.31 1793.66 1487.16 1794.01 1488.23 1794.36 1489.29 1794.69 1490.62 1795 1492.2 1795.31 1493.78 1795.59 1495.42 1795.83 1497.12L1796.24 1497.12C1798.83 1493.47 1800.8 1490.81 1802.13 1489.12 1803.47 1487.43 1804.6 1486.17 1805.52 1485.35 1806.44 1484.52 1807.32 1483.94 1808.17 1483.61 1809.02 1483.27 1810.15 1483.1 1811.56 1483.1 1812.83 1483.1 1813.87 1483.26 1814.68 1483.59L1813.06 1490.92 1810.22 1490.92C1810.06 1489.79 1809.59 1489.22 1808.8 1489.22 1808.56 1489.22 1808.3 1489.26 1808.03 1489.34 1807.76 1489.42 1807.43 1489.6 1807.04 1489.87 1806.65 1490.14 1806.07 1490.66 1805.32 1491.45 1804.56 1492.23 1803.71 1493.19 1802.76 1494.33 1801.82 1495.46 1800.84 1496.65 1799.85 1497.89L1797.09 1501.34C1797.58 1503.93 1798.03 1506.17 1798.47 1508.06 1798.9 1509.96 1799.28 1511.53 1799.62 1512.79 1799.96 1514.04 1800.26 1515.04 1800.51 1515.76 1800.77 1516.49 1801.05 1517.04 1801.34 1517.41 1801.64 1517.77 1801.95 1518.03 1802.26 1518.18 1802.57 1518.32 1802.93 1518.4 1803.33 1518.4 1804.06 1518.4 1804.77 1518.12 1805.46 1517.55 1806.15 1516.98 1807.14 1515.7 1808.44 1513.7L1811.07 1515.44C1809.18 1518.25 1807.47 1520.23 1805.94 1521.38 1804.42 1522.53 1802.6 1523.1 1800.49 1523.1 1799.33 1523.1 1798.35 1522.89 1797.54 1522.47 1796.72 1522.05 1796.02 1521.38 1795.43 1520.47 1794.83 1519.55 1794.31 1518.12 1793.85 1516.17 1793.01 1512.71 1792.5 1510.06 1792.31 1508.23L1791.9 1508.23C1789.04 1512.25 1786.91 1515.14 1785.52 1516.9 1784.13 1518.66 1782.98 1519.95 1782.07 1520.79 1781.17 1521.63 1780.29 1522.22 1779.44 1522.55 1778.59 1522.89 1777.46 1523.06 1776.06 1523.06 1774.79 1523.06 1773.75 1522.9 1772.93 1522.57L1774.56 1515.24 1777.39 1515.24C1777.56 1516.37 1778.03 1516.94 1778.81 1516.94 1779.19 1516.94 1779.59 1516.84 1780.01 1516.64 1780.43 1516.43 1781.03 1515.95 1781.81 1515.18 1782.59 1514.41 1783.67 1513.2 1785.05 1511.55 1786.43 1509.9 1788.43 1507.43 1791.05 1504.13 1790.65 1502 1790.23 1499.95 1789.79 1497.97 1789.36 1496 1788.92 1494.16 1788.46 1492.46 1788 1490.76 1787.62 1489.64 1787.32 1489.12 1787.02 1488.59 1786.71 1488.23 1786.37 1488.02 1786.03 1487.82 1785.61 1487.72 1785.09 1487.72 1784.53 1487.72 1784.01 1487.85 1783.55 1488.1 1783.09 1488.36 1782.59 1488.81 1782.05 1489.44 1781.51 1490.08 1780.8 1491.07 1779.91 1492.42L1777.27 1490.68C1778.97 1488.11 1780.61 1486.19 1782.18 1484.92 1783.74 1483.65 1785.59 1483.02 1787.73 1483.02Z" fill-rule="evenodd"/><text fill="#000000" fill-opacity="0" font-family="Arial,Arial_MSFontService,sans-serif" font-size="40.0815" x="1772.93" y="1518.09">ğ‘¥</text><path d="M1966.58 1460.34C1974.47 1462.42 1980.53 1466.91 1984.76 1473.81 1988.98 1480.72 1991.1 1489.04 1991.1 1498.8 1991.1 1508.58 1988.99 1516.91 1984.78 1523.78 1980.56 1530.66 1974.49 1535.14 1966.58 1537.22L1965.61 1534.1C1971.85 1532.02 1976.49 1527.91 1979.53 1521.78 1982.57 1515.64 1984.09 1507.85 1984.09 1498.39 1984.09 1489.26 1982.57 1481.68 1979.55 1475.64 1976.52 1469.6 1971.83 1465.54 1965.48 1463.46ZM1921.44 1460.34 1922.53 1463.46C1916.21 1465.54 1911.53 1469.6 1908.49 1475.64 1905.45 1481.68 1903.93 1489.26 1903.93 1498.39 1903.93 1507.85 1905.45 1515.64 1908.49 1521.78 1911.53 1527.91 1916.17 1532.02 1922.41 1534.1L1921.44 1537.22C1913.52 1535.14 1907.46 1530.66 1903.24 1523.78 1899.03 1516.91 1896.92 1508.58 1896.92 1498.8 1896.92 1489.04 1899.03 1480.72 1903.26 1473.81 1907.49 1466.91 1913.55 1462.42 1921.44 1460.34Z" fill-rule="evenodd"/><path d="M1946.48 1483.06C1948.99 1483.06 1951.28 1483.21 1953.35 1483.5 1955.41 1483.8 1957.47 1484.32 1959.53 1485.04L1957.7 1493.56 1954.42 1493.56C1954.12 1491.15 1953.33 1489.33 1952.05 1488.08 1950.77 1486.84 1948.75 1486.22 1945.99 1486.22 1943.86 1486.22 1942.13 1486.77 1940.8 1487.86 1939.48 1488.96 1938.82 1490.39 1938.82 1492.18 1938.82 1493.15 1938.99 1494.01 1939.32 1494.75 1939.66 1495.49 1940.34 1496.31 1941.37 1497.2 1942.4 1498.09 1943.99 1499.19 1946.15 1500.49 1947.86 1501.51 1949.22 1502.45 1950.25 1503.3 1951.27 1504.15 1952.08 1505 1952.68 1505.84 1953.27 1506.67 1953.7 1507.56 1953.97 1508.49 1954.24 1509.42 1954.38 1510.55 1954.38 1511.87 1954.38 1514.28 1953.74 1516.34 1952.45 1518.05 1951.17 1519.77 1949.43 1521.05 1947.23 1521.88 1945.02 1522.72 1942.52 1523.14 1939.71 1523.14 1937.47 1523.14 1935.26 1522.97 1933.1 1522.63 1930.94 1522.3 1928.54 1521.72 1925.89 1520.91L1927.83 1512.08 1931 1512.08C1931.1 1514.67 1931.83 1516.63 1933.18 1517.95 1934.54 1519.28 1936.68 1519.94 1939.63 1519.94 1942.19 1519.94 1944.2 1519.36 1945.65 1518.22 1947.09 1517.07 1947.81 1515.44 1947.81 1513.33 1947.81 1512.12 1947.61 1511.07 1947.21 1510.19 1946.8 1509.31 1946.14 1508.47 1945.22 1507.66 1944.3 1506.85 1942.84 1505.84 1940.84 1504.62 1938.74 1503.35 1937.1 1502.2 1935.92 1501.17 1934.74 1500.15 1933.86 1499.03 1933.27 1497.83 1932.67 1496.63 1932.37 1495.24 1932.37 1493.68 1932.37 1491.54 1932.95 1489.67 1934.1 1488.06 1935.24 1486.46 1936.89 1485.22 1939.02 1484.36 1941.15 1483.49 1943.64 1483.06 1946.48 1483.06Z" fill-rule="evenodd"/><text fill="#000000" fill-opacity="0" font-family="Arial,Arial_MSFontService,sans-serif" font-size="40.0815" x="1925.89" y="1518.13">ğ‘ </text><path d="M1999.92 1463.73 2018 1463.73 2018 1541.01 1999.92 1541.01 1999.92 1537.89 2011.27 1537.89 2011.27 1466.85 1999.92 1466.85Z" fill-rule="evenodd"/><text fill="#000000" fill-opacity="0" font-family="Arial,Arial_MSFontService,sans-serif" font-size="77.2856" x="1999.92" y="1531.35">]</text><path d="M2446.42 1487.7C2444.23 1487.7 2442.36 1488.93 2440.81 1491.39 2439.26 1493.84 2437.88 1497.72 2436.7 1503.02L2432.56 1521.38C2436.4 1521.24 2439.71 1519.98 2442.49 1517.59 2445.27 1515.2 2447.42 1511.96 2448.93 1507.88 2450.45 1503.8 2451.2 1499.59 2451.2 1495.24 2451.2 1492.89 2450.79 1491.04 2449.97 1489.7 2449.14 1488.37 2447.96 1487.7 2446.42 1487.7ZM2427.7 1484.37 2429.81 1487.17C2425.83 1490.01 2422.67 1493.37 2420.32 1497.26 2417.97 1501.15 2416.8 1504.99 2416.8 1508.77 2416.8 1512.28 2417.58 1515.05 2419.15 1517.08 2420.71 1519.11 2423.08 1520.44 2426.24 1521.09L2430.37 1502.49C2431.75 1496.33 2433.93 1491.78 2436.92 1488.85 2439.9 1485.92 2443.27 1484.46 2447.03 1484.46 2450.73 1484.46 2453.51 1485.49 2455.38 1487.56 2457.24 1489.62 2458.17 1492.72 2458.17 1496.86 2458.17 1502.02 2457.1 1506.71 2454.95 1510.92 2452.8 1515.13 2449.74 1518.43 2445.77 1520.81 2441.8 1523.19 2437.18 1524.42 2431.91 1524.5L2428.1 1541.4 2421.74 1541.4 2425.55 1524.42C2420.52 1523.85 2416.65 1522.18 2413.94 1519.41 2411.22 1516.64 2409.87 1513 2409.87 1508.49 2409.87 1499.52 2415.81 1491.48 2427.7 1484.37Z" fill-rule="evenodd"/><text fill="#000000" fill-opacity="0" font-family="Arial,Arial_MSFontService,sans-serif" font-size="57.022" x="2409.87" y="1534.27">ğœ‘</text><path d="M3097.72 1178.14C3100.23 1178.14 3102.52 1178.29 3104.59 1178.59 3106.66 1178.89 3108.72 1179.4 3110.77 1180.13L3108.95 1188.64 3105.66 1188.64C3105.37 1186.23 3104.58 1184.41 3103.29 1183.17 3102.01 1181.92 3099.99 1181.3 3097.23 1181.3 3095.1 1181.3 3093.37 1181.85 3092.05 1182.94 3090.72 1184.04 3090.06 1185.48 3090.06 1187.26 3090.06 1188.23 3090.23 1189.09 3090.57 1189.83 3090.9 1190.58 3091.59 1191.39 3092.61 1192.29 3093.64 1193.18 3095.23 1194.27 3097.4 1195.57 3099.1 1196.6 3100.46 1197.53 3101.49 1198.39 3102.52 1199.24 3103.33 1200.08 3103.92 1200.92 3104.52 1201.76 3104.95 1202.64 3105.22 1203.57 3105.49 1204.51 3105.62 1205.63 3105.62 1206.96 3105.62 1209.36 3104.98 1211.42 3103.7 1213.14 3102.41 1214.85 3100.67 1216.13 3098.47 1216.97 3096.27 1217.8 3093.76 1218.22 3090.95 1218.22 3088.71 1218.22 3086.51 1218.05 3084.35 1217.72 3082.18 1217.38 3079.78 1216.81 3077.13 1215.99L3079.08 1207.16 3082.24 1207.16C3082.35 1209.75 3083.08 1211.71 3084.43 1213.04 3085.78 1214.36 3087.93 1215.02 3090.87 1215.02 3093.44 1215.02 3095.44 1214.45 3096.89 1213.3 3098.33 1212.15 3099.06 1210.52 3099.06 1208.42 3099.06 1207.2 3098.85 1206.15 3098.45 1205.28 3098.04 1204.4 3097.38 1203.55 3096.46 1202.74 3095.54 1201.93 3094.09 1200.92 3092.09 1199.7 3089.98 1198.43 3088.34 1197.28 3087.16 1196.26 3085.99 1195.23 3085.1 1194.12 3084.51 1192.91 3083.91 1191.71 3083.62 1190.33 3083.62 1188.76 3083.62 1186.63 3084.19 1184.75 3085.34 1183.15 3086.49 1181.54 3088.13 1180.3 3090.26 1179.44 3092.4 1178.57 3094.88 1178.14 3097.72 1178.14Z" fill-rule="evenodd"/><text fill="#000000" fill-opacity="0" font-family="Arial,Arial_MSFontService,sans-serif" font-size="40.0815" x="3077.13" y="1213.21">ğ‘ </text><path d="M2579.5 450.5 2579.5 646.191" stroke="#000000" stroke-width="6.875" stroke-miterlimit="8" fill="none" fill-rule="evenodd"/><path d="M0 0 564.863 126.222" stroke="#000000" stroke-width="6.875" stroke-miterlimit="8" fill="none" fill-rule="evenodd" transform="matrix(-1 0 0 1 2579.36 746.5)"/><path d="M0 0 353.156 165.192" stroke="#000000" stroke-width="6.875" stroke-miterlimit="8" fill="none" fill-rule="evenodd" transform="matrix(-1 0 0 1 2014.66 972.5)"/><path d="M2014.5 972.5 2435.45 1137.69" stroke="#000000" stroke-width="6.875" stroke-miterlimit="8" fill="none" fill-rule="evenodd"/><path d="M0 0 0.000360892 199.954" stroke="#000000" stroke-width="6.875" stroke-miterlimit="8" fill="none" fill-rule="evenodd" transform="matrix(-1 0 0 1 1661.5 1238.5)"/><path d="M0 0 0.000360892 206.387" stroke="#000000" stroke-width="6.875" stroke-miterlimit="8" fill="none" fill-rule="evenodd" transform="matrix(-1 0 0 1 2435.5 1238.5)"/><path d="M0 0 0.000360892 165.056" stroke="#000000" stroke-width="6.875" stroke-miterlimit="8" fill="none" fill-rule="evenodd" transform="matrix(-1 0 0 1 3095.5 972.5)"/><path d="M3095.65 872.858 2579.5 746.5" stroke="#000000" stroke-width="6.875" stroke-miterlimit="8" fill="none" fill-rule="evenodd"/></g></svg>